<?xml version="1.0" encoding="utf-8"?><!DOCTYPE svg PUBLIC "-//W3C//DTD SVG 1.1//EN" "http://www.w3.org/Graphics/SVG/1.1/DTD/svg11.dtd"><svg version="1.1" xmlns="http://www.w3.org/2000/svg" xmlns:xlink="http://www.w3.org/1999/xlink" width="256px" height="256px" viewBox="0 0 16 16" xml:space="preserve"><defs><linearGradient id="gradA"><stop offset="0%" stop-color="#ff7c76"/><stop offset="100%" stop-color="#f3fd68"/></linearGradient><linearGradient id="gradB"><stop offset="0%" stop-color="#8ddf77"/><stop offset="100%" stop-color="#66edd6"/></linearGradient><linearGradient id="gradC"><stop offset="0%" stop-color="#66b4e6"/><stop offset="100%" stop-color="#9166c1"/></linearGradient></defs><path d="M0,0h16v16H0" fill="#000"/><path d="M1,1h2v2H1M4,1h2v2H4M7,1h2v2H7M10,1h2v2H10M13,1h2v2H13M1,13h2v2H1M4,13h2v2H4M7,13h2v2H7M10,13h2v2H10M13,13h2v2H13" fill="#fff"/><path d="M1,4h4v8H1" fill="url(#gradA)"/><path d="M6,4h4v8H6" fill="url(#gradB)"/><path d="M11,4h4v8H11" fill="url(#gradC)"/></svg>